<svg xmlns="http://www.w3.org/2000/svg" width="64" height="64"><path fill="#FFF" d="m3.099 46.599 5.15-35.913h27.019l-5.055 35.913z"/><path fill="#32C2DA" d="m60.902 18.209-5.15 35.913H26.978l5.57-4.839 4.371-31.074z"/><path fill="#000" d="M5.922 8 0 49.284h24.948l-1.06 7.525h34.19L64 15.525H37.298L38.355 8H5.922Zm2.33 2.685h27.014L30.212 46.6H3.1l5.151-35.915h.001Zm24.295 38.599L36.92 18.21h23.983l-5.15 35.912H26.98l5.568-4.838h-.001Z"/><path fill="#231F20" d="M43.832 28.735c-.137-.135-.318-.135-.453 0l-1.447 1.447c-.137.136-.137.316 0 .453l5.317 5.317a.305.305 0 0 1 0 .428l-5.317 5.316c-.137.137-.137.318 0 .453l1.447 1.447c.135.135.316.135.453 0l7.208-7.208a.312.312 0 0 0 0-.443l-7.208-7.21Zm-22.3-7.524c.135-.135.316-.135.451 0l1.447 1.445c.137.139.137.318 0 .453l-5.317 5.32a.305.305 0 0 0 0 .428l5.317 5.315c.137.135.137.319 0 .454l-1.445 1.446a.304.304 0 0 1-.453 0l-7.21-7.208a.315.315 0 0 1 0-.443l7.21-7.21Z"/></svg>
