<svg xmlns="http://www.w3.org/2000/svg" width="204" height="41" viewBox="0 0 204 41" aria-labelledby="logo-title" role="img">
    <title id="logo-title">Previous Next</title>
    <g fill="none" fill-rule="evenodd"><path fill="#32C2DA" stroke="#000" stroke-width="2" d="M118.8651 8h83.2573l-3.7025 32h-82.5167l2.962-32Z"></path><path fill="#000" fill-rule="nonzero" d="M138.4144 18.0004h1.7836c.178 0 .277.0863.2503.2744l-1.6758 11.485c-.0267.1727-.1257.2398-.286.2398h-2.2663c-.1415 0-.2503-.0518-.3027-.2053l-2.4435-7.8076-1.1505 7.773c-.0268.1728-.1257.24-.287.24h-1.7826c-.178 0-.277-.0855-.2493-.2736l1.6778-11.4858c.0247-.1708.1247-.24.284-.24h2.2653c.1425 0 .2493.0519.3047.2064l2.4416 7.8162 1.1515-7.7826c.0267-.1708.1246-.24.2859-.24m11.1272 10.0618-.2413 1.6967c-.0178.1727-.1247.2399-.285.2399h-7.6866c-.18 0-.269-.0845-.2502-.2726l1.6768-11.4858c.0158-.1708.1246-.24.2849-.24h7.6708c.177 0 .267.0864.2473.2745l-.2384 1.6967c-.0198.1717-.1257.2399-.286.2399h-5.3519l-.374 2.5286h4.8693c.178 0 .267.1036.2502.2745l-.268 1.6966c-.0179.1708-.1247.2399-.286.2399h-4.9047l-.4017 2.8386h5.3243c.178 0 .268.0844.2502.2725m12.715-9.7537-4.05 5.7089 2.4702 5.6906c.0732.1727-.0158.2917-.2127.2917h-2.1665c-.1418.0067-.2717-.0763-.3215-.2053l-1.4621-3.3856-2.4455 3.4355c-.0712.1046-.1958.1554-.3373.1554h-2.2753c-.2127 0-.285-.1372-.1593-.308l4.1282-5.803-2.4267-5.5965c-.0692-.1727.0198-.2917.2157-.2917h2.1487c.1418-.0067.2718.0763.3215.2053l1.4344 3.3012 2.3822-3.351c.0712-.1047.1959-.1555.3393-.1555h2.2575c.2127 0 .284.12.1583.308m10.7365-.0326-.2503 1.6957c-.0178.1727-.1246.2399-.2839.2399h-2.9708l-1.4008 9.5483c-.0178.1708-.1246.24-.2839.24h-2.0705c-.178 0-.2671-.0845-.2493-.2736l1.3919-9.5157h-2.954c-.177 0-.267-.0844-.2502-.2725l.2423-1.6967c.0168-.1727.1237-.2399.286-.2399h8.5432c.1781 0 .286.0854.2503.2745M183.7213 18.0806c-.116-.1075-.2725-.1075-.3894 0l-1.2433 1.1502c-.117.1113-.117.2539 0 .3613l4.5738 4.238c.1006.0931.1006.2452 0 .3394l-4.5738 4.237c-.117.1074-.119.2529-.001.3612l1.2443 1.1503c.1159.1093.2735.1093.3894 0l6.2014-5.7419a.2387.2387 0 0 0 0-.3517l-6.2014-5.7438Z"></path><path fill="#FFF" stroke="#000" stroke-width="2" d="M6.1245 1h119.0177l-4.2667 32H1.8578L6.1245 1Z"></path><path fill="#000" fill-rule="nonzero" d="M36.6468 14.2448c0-.8607-.4756-.945-1.56-.945h-2.0646l-.5203 3.4264h1.947c1.7133 0 2.1979-.8775 2.1979-2.4823m2.5022-.213c0 3.2753-1.4446 4.832-4.915 4.832h-2.0545l-.5651 3.6571c-.0279.1557-.1254.2317-.2885.2317h-2.0794c-.1791 0-.2687-.0908-.2418-.265L30.69 11.3975c.0269-.1575.1254-.2316.2875-.2316h4.324c2.8873 0 3.8474 1.0173 3.8474 2.864m4.2136 2.6963h1.947c1.7113 0 2.1968-.8775 2.1968-2.4832 0-.859-.4775-.9414-1.56-.9414h-2.0645l-.5203 3.4246h.001Zm5.6233 5.7262c.0886.1825.0358.2993-.179.2993h-2.0287c-.1433 0-.2687-.05-.3214-.1668l-1.758-3.722h-1.6606l-.5651 3.6562c-.0269.1575-.1254.2317-.2876.2317h-2.0794c-.18 0-.2686-.0909-.2427-.2641l1.6854-11.0883c.0279-.1593.1254-.2316.2875-.2316h4.324c2.8883 0 3.8474 1.0164 3.8474 2.863 0 2.5407-.8696 4.0464-2.8783 4.6005l1.8565 3.823v-.0009Zm10.4458-1.5715-.2408 1.6382c-.0199.1668-.1253.2317-.2885.2317h-7.7306c-.1811 0-.2687-.0834-.2517-.265l1.6874-11.0883c.0169-.165.1243-.2316.2855-.2316h7.7147c.179 0 .2686.0833.2507.264l-.2417 1.6391c-.018.1659-.1254.2317-.2876.2317h-5.3826l-.376 2.4415h4.897c.181 0 .2706.0991.2517.265l-.2686 1.6382c-.0189.1649-.1254.2316-.2885.2316h-4.9329l-.404 2.739h5.3558c.18 0 .2706.0833.2507.265m10.807-9.7151h2.1271c.196 0 .2766.1158.207.29l-4.72 11.1058c-.0537.1325-.1522.191-.3054.191H64.256c-.1592 0-.2507-.0844-.2686-.2317L62.6334 11.43c-.02-.1743.0716-.2641.2517-.2641h2.0894c.1611 0 .2785.0898.2875.2409l.8338 8.8367h.2964l3.544-8.8784c.0527-.1409.1512-.1992.3034-.1992m11.981 2.1338h-2.7271l-1.1203 7.3162h2.6814c.179 0 .2865.0834.2517.265l-.2428 1.64c-.0179.165-.1254.2317-.2885.2317H72.72c-.179 0-.2686-.0843-.2517-.2668l.2447-1.6382c.016-.164.1254-.2317.2866-.2317h2.744l1.1213-7.3152h-2.6993c-.179 0-.2676-.0834-.2507-.2641l.2418-1.6391c.0179-.1659.1263-.2316.2875-.2316h8.055c.179 0 .2855.0833.2517.265l-.2437 1.6381c-.017.165-.1264.2317-.2856.2317m4.2553 3.2772-.1522.9757c-.4209 2.7556.0358 3.1207 1.4626 3.1207 1.562 0 2.2515-.4976 2.6733-3.2522l.1433-.9767c.4308-2.7556-.0288-3.1188-1.4625-3.1188-1.5521 0-2.2516.4957-2.6645 3.2523m6.6462-.0176-.1513.9923c-.6367 4.1881-2.0097 5.4455-5.301 5.4455-3.4076 0-4.504-1.3982-3.8583-5.578l.1443-1.0007C84.6035 12.2574 85.9834 11 89.2578 11c3.4195 0 4.502 1.3991 3.8653 5.5613m11.4705-5.1314-1.0775 7.0512C103.0336 21.5925 101.4367 23 98.5385 23c-3.0047 0-4.314-1.5474-3.8295-4.6588l1.0586-6.9428c.017-.1668.1264-.2316.2865-.2316h2.0814c.1791 0 .2687.0815.2518.2631l-1.0766 7.0512c-.2169 1.3991.1433 2.2015 1.3352 2.2015 1.372 0 2.0466-.9432 2.2685-2.3414l1.0596-6.9428c.0199-.1668.1263-.2316.2875-.2316h2.0804c.1791 0 .2687.0815.2517.2631m9.9812 7.7304c0 2.6305-2.0446 3.8054-5.1836 3.8054-2.951 0-4.4334-.9673-4.2444-3.0113.0279-.1826.1343-.2641.2985-.2641h1.8446c.1622 0 .2517.1306.2786.3215.0557.4466.7362.795 1.957.795 1.757 0 2.4824-.505 2.4824-1.5307 0-.7533-.4378-1.0516-1.9282-1.3657-2.1063-.4467-3.9638-1.1416-3.9638-3.2032 0-2.4239 1.8386-3.6738 4.6831-3.6738 2.7898 0 4.2683.9024 4.1986 2.9048-.0189.2233-.2159.3057-.4327.3057h-1.5422c-.2428 0-.386-.1316-.4477-.3224-.1701-.4883-.8178-.7283-1.8128-.7283-1.4794 0-2.1351.5133-2.1351 1.4065 0 .6375.2448 1.0007 1.553 1.2833 2.2049.4633 4.3947 1.0748 4.3947 3.2773M18.2788 11.0815c.116-.1074.2735-.1093.3894-.0019l1.2423 1.1531c.118.1084.118.2529 0 .3613l-4.5718 4.2369c-.1006.0931-.1006.2452 0 .3393l4.5718 4.237c.118.1074.12.2519.002.3612l-1.2443 1.1502a.2696.2696 0 0 1-.1947.0814.2696.2696 0 0 1-.1947-.0814l-6.2015-5.7417a.2386.2386 0 0 1 0-.3517l6.2015-5.7437ZM121.5701 33.9996 117 39l-1-6z"></path></g>
</svg>
