<svg xmlns="http://www.w3.org/2000/svg" viewBox="0 0 16 16" width="16" height="16"><g class="nc-icon-wrapper"><path d="M7,5.5A3.5,3.5,0,1,0,3.5,9a3.476,3.476,0,0,0,1.039-.175A8.983,8.983,0,0,1,2.422,12.3,1,1,0,1,0,3.85,13.7,10.934,10.934,0,0,0,7,6a.951.951,0,0,0-.034-.167A3.323,3.323,0,0,0,7,5.5Z"/><path d="M16,5.5a3.567,3.567,0,1,0-2.461,3.325A8.983,8.983,0,0,1,11.422,12.3a1,1,0,1,0,1.428,1.4A10.934,10.934,0,0,0,16,6a.951.951,0,0,0-.034-.167A3.323,3.323,0,0,0,16,5.5Z" data-color="color-2"/></g></svg>