<svg xmlns="http://www.w3.org/2000/svg" width="16" height="16" fill="none"><path fill="#000" d="M3.353 1.917c1.773 1.33 3.68 4.03 4.38 5.479.7-1.449 2.608-4.148 4.381-5.48 1.28-.96 3.353-1.703 3.353.662 0 .472-.271 3.968-.43 4.535-.552 1.973-2.564 2.476-4.353 2.172 3.128.532 3.924 2.295 2.205 4.059-3.264 3.349-4.69-.84-5.057-1.914-.067-.197-.098-.289-.099-.21 0-.079-.031.013-.098.21-.366 1.074-1.793 5.263-5.057 1.914-1.719-1.764-.923-3.527 2.205-4.06C2.993 9.59.982 9.087.43 7.115.27 6.545 0 3.05 0 2.577 0 .213 2.073.956 3.353 1.917Z"/></svg>