<svg width="25" height="32" viewBox="0 0 25 32" xmlns="http://www.w3.org/2000/svg">
    <path d="M17.264 6.808C15.015 4.56 12.87 2.417 12.231 0c-.639 2.417-2.785 4.56-5.034 6.808C3.824 10.178 0 13.999 0 19.729a12.231 12.231 0 1 0 24.462 0c0-5.73-3.824-9.55-7.198-12.921M5.2 22.579c-.75-.025-3.518-4.796 1.617-9.876l3.397 3.712a.29.29 0 0 1-.022.433c-.811.832-4.267 4.297-4.696 5.496-.09.247-.219.238-.296.235m7.032 6.288a4.207 4.207 0 0 1-4.206-4.207 4.383 4.383 0 0 1 1.048-2.778c.759-.928 3.158-3.537 3.158-3.537s2.362 2.647 3.152 3.528a4.114 4.114 0 0 1 1.055 2.787 4.207 4.207 0 0 1-4.207 4.207m8.052-6.822c-.091.198-.297.53-.574.54-.495.018-.548-.236-.914-.777-.803-1.188-7.81-8.512-9.12-9.928-1.153-1.246-.163-2.124.297-2.584.576-.578 2.259-2.26 2.259-2.26s5.017 4.761 7.107 8.013c2.09 3.253 1.37 6.067.945 6.996" />
</svg>
