<?xml version="1.0" encoding="utf-8"?>
<!-- Generator: Adobe Illustrator 21.0.2, SVG Export Plug-In . SVG Version: 6.00 Build 0)  -->
<svg version="1.1"
	 id="Layer_1" xmlns:cc="http://creativecommons.org/ns#" xmlns:dc="http://purl.org/dc/elements/1.1/" xmlns:rdf="http://www.w3.org/1999/02/22-rdf-syntax-ns#" xmlns:svg="http://www.w3.org/2000/svg"
	 xmlns="http://www.w3.org/2000/svg" xmlns:xlink="http://www.w3.org/1999/xlink" x="0px" y="0px" viewBox="46 387.4 687 67.5"
	 style="enable-background:new 46 387.4 687 67.5;" xml:space="preserve">
<style type="text/css">
	.st0{fill:#FFFFFF;}
	.st1{opacity:0.6;fill:#FFFFFF;}
</style>
<g transform="matrix(1.25,0,0,-1.25,0,67.5125)">
	<g>
		<path class="st0" d="M55.2-280.9c4.2,0,7.7,3.4,7.7,7.8c0,4.1-3.5,7.3-7.7,7.3h-8.7v-15.1H55.2z M36.8-258.1
			c0,0.8,0.6,1.4,1.4,1.4h17.6c9.2,0,16.8-7.5,16.8-16.6c0-9.3-7.6-16.9-16.7-16.9h-9.4v-17.6c0-0.8-0.7-1.4-1.4-1.4h-6.9
			c-0.8,0.1-1.4,0.7-1.4,1.5V-258.1"/>
		<path class="st0" d="M101.8-280.6c4,0,7.4,3.5,7.4,7.7c0,4-3.5,7.3-7.4,7.3H89.6v-14.9L101.8-280.6L101.8-280.6z M79.7-258.1
			c0,0.8,0.6,1.4,1.4,1.4h21.5c9,0,16.4-7.2,16.4-16.1c0-6.9-4.6-12.5-11.1-15.2l10.2-19c0.5-1,0-2.2-1.3-2.2h-7.9
			c-0.7,0-1.1,0.4-1.2,0.7l-10,19.9h-8.3v-19.1c0-0.8-0.7-1.4-1.4-1.4h-6.9c-0.8,0-1.4,0.7-1.4,1.4v49.7"/>
		<path class="st0" d="M128.2-258.1c0,0.8,0.6,1.4,1.4,1.4h30.5c0.8,0,1.4-0.7,1.4-1.4v-6.2c0-0.8-0.6-1.4-1.4-1.4h-22.2V-278h18.5
			c0.8,0,1.4-0.7,1.4-1.4v-6.2c0-0.8-0.7-1.4-1.4-1.4h-18.5v-13.1h22.2c0.8,0,1.4-0.7,1.4-1.4v-6.2c0-0.8-0.6-1.4-1.4-1.4h-30.5
			c-0.8,0-1.4,0.7-1.4,1.4v49.7"/>
		<path class="st0" d="M166.6-258.6c-0.5,1,0.2,2,1.3,2h7.7c0.7,0,1.1-0.5,1.3-0.8l14.4-32.2h0.5l14.4,32.2c0.2,0.4,0.6,0.8,1.3,0.8
			h7.7c1.1,0,1.7-1,1.3-2l-23.4-50.5c-0.3-0.4-0.6-0.8-1.3-0.8H191c-0.7,0-1.1,0.4-1.3,0.8L166.6-258.6"/>
		<path class="st0" d="M221.6-258.1c0,0.8,0.7,1.4,1.4,1.4h7c0.8,0,1.4-0.7,1.4-1.4v-49.7c0-0.8-0.7-1.4-1.4-1.4h-7
			c-0.8,0-1.4,0.7-1.4,1.4V-258.1"/>
		<path class="st0" d="M266.8-300.1c9.5,0,17.2,7.7,17.2,17.2c0,9.5-7.8,17.3-17.2,17.3c-9.5,0-17.2-7.9-17.2-17.3
			C249.6-292.4,257.3-300.1,266.8-300.1z M266.8-255.9c15,0,27-12.1,27-27.1s-12-26.9-27-26.9S239.9-298,239.9-283
			S251.8-255.9,266.8-255.9"/>
		<path class="st0" d="M301.4-258.1c0,0.8,0.7,1.4,1.4,1.4h7.1c0.8,0,1.4-0.7,1.4-1.4v-30.7c0-6.4,4.4-11.4,10.9-11.4s11,5,11,11.3
			v30.8c0,0.8,0.6,1.4,1.4,1.4h7.1c0.8,0,1.4-0.7,1.4-1.4v-31.2c0.1-11.4-9-20.6-20.9-20.6c-11.7,0-20.8,9.2-20.8,20.6V-258.1"/>
		<path class="st0" d="M351.5-301.8l2.7,4.7c0.6,1.1,1.9,1.1,2.6,0.5c0.4-0.2,6.5-4.7,11.3-4.7c3.9,0,6.8,2.6,6.8,5.8
			c0,3.8-3.2,6.5-9.5,9c-7.1,2.9-14.1,7.4-14.1,16.2c0,6.7,5,14.4,16.9,14.4c7.7,0,13.5-3.9,15-5c0.8-0.5,1-1.7,0.5-2.5l-2.9-4.3
			c-0.6-0.9-1.7-1.5-2.6-0.9c-0.6,0.4-6.3,4.1-10.4,4.1c-4.3,0-6.6-2.9-6.6-5.2c0-3.5,2.8-5.9,8.8-8.4c7.3-2.9,15.7-7.3,15.7-16.9
			c-0.1-7.8-6.7-14.9-17.3-14.9c-9.5,0-15,4.4-16.5,5.9C351.2-303.3,350.8-302.9,351.5-301.8"/>
		<path class="st0" d="M396.2-257.2c0,0.8,0.7,1.4,1.4,1.4h1.9l31.2-33.1h0.1v31c0,0.8,0.6,1.4,1.4,1.4h6.9c0.8,0,1.4-0.7,1.4-1.4
			v-50.5c0.1-0.9-0.6-1.5-1.4-1.5h-1.8l-31.4,34.4h-0.1v-32.2c0-0.8-0.6-1.4-1.4-1.4h-6.8c-0.8,0-1.4,0.7-1.4,1.4L396.2-257.2"/>
		<path class="st0" d="M450.2-258.1c0,0.8,0.6,1.4,1.4,1.4H482c0.8,0,1.4-0.7,1.4-1.4v-6.2c0-0.8-0.6-1.4-1.4-1.4h-22.2V-278h18.5
			c0.8,0,1.4-0.7,1.4-1.4v-6.2c0-0.8-0.7-1.4-1.4-1.4h-18.5v-13.1H482c0.8,0,1.4-0.7,1.4-1.4v-6.2c0-0.8-0.6-1.4-1.4-1.4h-30.5
			c-0.8,0-1.4,0.7-1.4,1.4v49.7"/>
		<path class="st0" d="M550.9-265.6h-11.5c-0.8,0-1.4,0.7-1.4,1.4v6.2c0,0.8,0.6,1.4,1.4,1.4h32.8c0.8,0,1.4-0.7,1.4-1.4v-6.2
			c0-0.8-0.6-1.4-1.4-1.4h-11.5v-42.1c0-0.8-0.7-1.4-1.4-1.4h-7c-0.8,0-1.4,0.7-1.4,1.4L550.9-265.6"/>
		<path class="st1" d="M533.2-258.7c0.6,1,0,2.1-1.3,2.1h-8.7c-0.6,0-1.1-0.4-1.2-0.7l-9.7-15.8l5.9-9L533.2-258.7"/>
		<path class="st1" d="M533.7-307l-15.5,24.7l-5.9-8.9l0,0l10.7-17.2c0.2-0.3,0.7-0.7,1.3-0.7h8.1C533.7-309.1,534.3-308,533.7-307"
			/>
		<path class="st0" d="M518.2-282.3l-6,9.2l0,0l0,0l-9.9,16.2c-0.2,0.3-0.6,0.7-1.2,0.7h-9c-1.3,0-1.9-1.1-1.3-2.1l15.5-24
			l-16.1-25.2c-0.6-1,0-2.1,1.4-2.1h8.3c0.6,0,1.1,0.4,1.3,0.7l10.9,17.4l0,0l0.1,0.2l5.9,8.9L518.2-282.3"/>
		<path class="st0" d="M582.1-259.2h-1.4v-1.7h1.3c0.7,0,1.1,0.3,1.1,0.8c0,0.5-0.4,0.8-1.1,0.8L582.1-259.2z M582.7-261.3l1.4-1.9
			h-0.9l-1.3,1.7h-1.2v-1.7H580v4.6h2.1c1,0,1.7-0.5,1.7-1.4c0-0.8-0.5-1.2-1.2-1.4L582.7-261.3z M581.9-256.8
			c-2.3,0-4.1-1.9-4.1-4.1c0-2.3,1.8-4.1,4.1-4.1c2.3,0,4.1,1.9,4.1,4.1C586-258.6,584.2-256.8,581.9-256.8z M581.9-265.4
			c-2.5,0-4.5,2-4.5,4.5s2,4.5,4.5,4.5c2.5,0,4.5-2,4.5-4.5S584.4-265.4,581.9-265.4"/>
	</g>
</g>
</svg>
