<?xml version="1.0" encoding="utf-8"?>
<!-- Generator: Adobe Illustrator 21.0.2, SVG Export Plug-In . SVG Version: 6.00 Build 0)  -->
<svg version="1.1" id="Layer_1" xmlns="http://www.w3.org/2000/svg" xmlns:xlink="http://www.w3.org/1999/xlink" x="0px" y="0px"
	 viewBox="0 0 27.9 27.9" style="enable-background:new 0 0 27.9 27.9;" xml:space="preserve">
<path d="M19.3,11.8c0,4.1-3.4,7.5-7.5,7.5s-7.5-3.4-7.5-7.5c0-4.1,3.4-7.5,7.5-7.5S19.3,7.7,19.3,11.8z M27.9,25.7
	c0-0.6-0.2-1.1-0.6-1.5l-5.7-5.7c1.4-2,2.1-4.3,2.1-6.7C23.6,5.3,18.3,0,11.8,0S0,5.3,0,11.8s5.3,11.8,11.8,11.8
	c2.4,0,4.7-0.7,6.7-2.1l5.7,5.7c0.4,0.4,0.9,0.6,1.5,0.6C26.9,27.9,27.9,26.9,27.9,25.7z"/>
</svg>
